<svg viewBox="0 0 562 620">
<path d="M440.678 265.697H447.72C447.72 265.697 545.407 284.924 545.407 323.983C545.407 323.983 579.205 373.276 330.202 397C330.633 397 558.8 393.08 561.358 331.017C561.358 331.017 577.941 280.427 442.575 258L440.678 265.697Z" fill="#D9D8D7"/>
<path d="M0.0947167 329.114C-0.566304 379.762 188.457 386.767 188.457 386.767C23.058 368.203 14.7809 337.474 14.7809 337.474C-2.46315 295.791 105.5 276.5 105.5 276.5C116.996 274.626 107.426 270.101 107.426 270.101C0.771591 288.059 0.0947167 329.114 0.0947167 329.114Z" fill="#D9D8D7"/>
<mask id="mask0_813_163837" style="mask-type:alpha" maskUnits="userSpaceOnUse" x="-123" y="-265" width="808" height="604">
<ellipse cx="281" cy="37" rx="404" ry="302" fill="#D9D9D9"/>
</mask>
<g mask="url(#mask0_813_163837)">
<path d="M281.5 267.436C272.969 267.436 265.094 268.074 257.219 269.989C250 235.527 218.5 210 181.094 210C137.781 210 103 243.824 103 285.943C103 324.871 132.531 356.142 171.25 361.247C170.594 366.352 169.938 371.458 169.938 376.563C169.938 406.557 182.406 433.999 203.406 453.782L276.25 528.448C277.562 529.724 279.531 531 281.5 531C283.469 531 285.438 530.362 286.75 528.448L359.594 452.505C379.938 432.722 393.062 405.919 393.062 375.287C393.062 370.181 392.406 365.076 391.75 359.971C430.469 355.503 460 323.595 460 284.666C460 243.824 425.219 210 381.906 210C344.5 210 313 235.527 305.781 269.989C297.906 268.712 290.031 267.436 281.5 267.436Z" fill="#ABDC4E"/>
<path d="M433 286.007C433 313.367 410.045 335 382.5 335C354.299 335 332 312.731 332 286.007C332 258.647 354.955 237.014 382.5 237.014C410.045 236.378 433 258.647 433 286.007Z" fill="white"/>
<path d="M413 286.011C413 302.396 398.848 315 382 315C364.478 315 351 301.766 351 286.011C351 269.626 365.152 257.022 382 257.022C398.848 256.392 413 269.626 413 286.011Z" fill="#E02026"/>
<path d="M402 276C402 282 397.1 286 391.5 286C385.2 286 381 281.334 381 276C381 270.667 385.9 266 391.5 266C397.1 266 402 270.667 402 276Z" fill="white"/>
<path d="M231 286.007C231 313.367 208.045 335 180.5 335C152.299 335 130 312.731 130 286.007C130 258.647 152.955 237.014 180.5 237.014C208.701 236.378 231 258.647 231 286.007Z" fill="white"/>
<path d="M212 286.011C212 302.396 198.304 315 182 315C165.043 315 152 301.766 152 286.011C152 269.626 165.696 257.022 182 257.022C198.304 256.392 212 269.626 212 286.011Z" fill="#E02026"/>
<path d="M201 276C201 282 196.567 286 191.5 286C185.8 286 182 281.334 182 276C182 270.667 186.433 266 191.5 266C196.567 266 201 270.667 201 276Z" fill="white"/>
</g>
</svg>
