<svg viewBox="0 0 66 66" fill="none" xmlns="http://www.w3.org/2000/svg">
<path fill-rule="evenodd" clip-rule="evenodd" d="M44.5738 28.149L37.342 28.583C38.5763 25.561 38.4539 22.029 36.6939 18.9806C33.6639 13.7325 26.9158 11.9243 21.6677 14.9543C16.4195 17.9843 14.6114 24.7325 17.6414 29.9806C19.7714 33.6698 23.7345 35.6541 27.7275 35.4503L30.9875 41.0968L27.4106 42.2613L27.2173 42.3266C27.0241 42.392 26.8409 42.4747 26.6331 42.5947C25.7151 43.1247 25.0591 43.9884 24.7809 45.0266L23.776 48.8861L37.6822 52.6122C38.867 52.9443 40.1562 52.7774 41.2301 52.1574L52.142 45.8574C53.8394 44.8774 54.577 42.8349 53.8841 40.9948L50.5598 32.0369C49.6408 29.5652 47.235 27.9982 44.5738 28.149ZM46.8176 33.4353L50.142 42.3933L39.2301 48.6933C39.0742 48.7833 38.8956 48.794 38.7144 48.7601L28.6604 46.0661L36.9116 43.3576L26.3016 24.9806C26.0216 24.4956 26.1827 23.8945 26.6677 23.6145C27.1526 23.3345 27.7537 23.4956 28.0337 23.9806L34.0337 34.3729L37.0821 32.6129L44.805 32.1493C45.6978 32.0957 46.5089 32.6205 46.8176 33.4353ZM23.6677 18.4184C20.3248 20.3484 19.1755 24.6377 21.1055 27.9806C22.0555 29.626 23.5737 30.7356 25.2775 31.2068L22.8375 26.9806C21.4575 24.5903 22.2774 21.5304 24.6677 20.1504C27.0579 18.7704 30.1178 19.5903 31.4978 21.9806L33.9378 26.2068C34.3817 24.4956 34.1798 22.626 33.2298 20.9806C31.2998 17.6377 27.0105 16.4884 23.6677 18.4184Z" fill="#00B5AE"/>
</svg>
