<svg width="20" height="25" viewBox="0 0 20 25" fill="none" xmlns="http://www.w3.org/2000/svg">
    <path d="M9.9994 5.44054C10.4648 5.44054 10.9197 5.30253 11.3067 5.04397C11.6937 4.78541 11.9953 4.41791 12.1734 3.98794C12.3515 3.55797 12.3981 3.08485 12.3073 2.62839C12.2165 2.17194 11.9924 1.75266 11.6633 1.42358C11.3342 1.09449 10.9149 0.870384 10.4585 0.77959C10.002 0.688796 9.52889 0.735395 9.09892 0.913494C8.66895 1.09159 8.30145 1.39319 8.04289 1.78016C7.78433 2.16712 7.64632 2.62206 7.64632 3.08746C7.64632 3.71153 7.89424 4.31005 8.33552 4.75134C8.77681 5.19263 9.37533 5.44054 9.9994 5.44054ZM18.8235 21.9121H17.6469V16.0294C17.6469 15.7174 17.523 15.4181 17.3023 15.1975C17.0817 14.9768 16.7824 14.8529 16.4704 14.8529H10.5877V12.4998H16.4704C16.7824 12.4998 17.0817 12.3758 17.3023 12.1552C17.523 11.9345 17.6469 11.6353 17.6469 11.3232C17.6469 11.0112 17.523 10.7119 17.3023 10.4913C17.0817 10.2707 16.7824 10.1467 16.4704 10.1467H10.5877V7.79362C10.5877 7.48158 10.4637 7.18232 10.2431 6.96168C10.0224 6.74104 9.72317 6.61708 9.41113 6.61708C9.0991 6.61708 8.79984 6.74104 8.57919 6.96168C8.35855 7.18232 8.23459 7.48158 8.23459 7.79362V16.0294C8.23459 16.3414 8.35855 16.6407 8.57919 16.8613C8.79984 17.082 9.0991 17.2059 9.41113 17.2059H15.2938V23.0886C15.2938 23.4007 15.4178 23.6999 15.6384 23.9206C15.8591 24.1412 16.1583 24.2652 16.4704 24.2652H18.8235C19.1355 24.2652 19.4348 24.1412 19.6554 23.9206C19.876 23.6999 20 23.4007 20 23.0886C20 22.7766 19.876 22.4774 19.6554 22.2567C19.4348 22.0361 19.1355 21.9121 18.8235 21.9121ZM10.823 20.0296C10.2303 20.8198 9.40409 21.4035 8.46128 21.698C7.51846 21.9926 6.50689 21.983 5.56983 21.6706C4.63278 21.3582 3.81776 20.759 3.24021 19.9577C2.66267 19.1564 2.35189 18.1937 2.35189 17.2059C2.35327 16.2914 2.62107 15.3972 3.12254 14.6324C3.62402 13.8677 4.33743 13.2656 5.17559 12.8998C5.46266 12.775 5.6884 12.5412 5.80313 12.25C5.91787 11.9587 5.9122 11.6338 5.78739 11.3468C5.66257 11.0597 5.42883 10.834 5.13758 10.7192C4.84633 10.6045 4.52143 10.6102 4.23435 10.735C3.24429 11.1673 2.36667 11.8211 1.66906 12.646C0.971456 13.4709 0.472487 14.4449 0.210583 15.493C-0.0513204 16.5411 -0.0691713 17.6353 0.158405 18.6914C0.385982 19.7475 0.852914 20.7373 1.52324 21.5845C2.19357 22.4317 3.0494 23.1138 4.02483 23.5781C5.00027 24.0425 6.06927 24.2768 7.14951 24.263C8.22975 24.2492 9.29242 23.9876 10.2557 23.4985C11.2189 23.0093 12.057 22.3056 12.7054 21.4415C12.8927 21.1919 12.9731 20.8781 12.9289 20.5692C12.8848 20.2603 12.7198 19.9816 12.4701 19.7943C12.2205 19.6071 11.9067 19.5267 11.5978 19.5708C11.2889 19.615 11.0102 19.78 10.823 20.0296Z" fill="#FCFCFC"/>
    </svg>
    