<svg width="49" height="49" viewBox="0 0 49 49" fill="none" xmlns="http://www.w3.org/2000/svg">
<path fill-rule="evenodd" clip-rule="evenodd" d="M41.5 10.5V15.06C42.68 15.76 43.5 17.02 43.5 18.5V30.5C43.5 31.98 42.68 33.24 41.5 33.94V38.5C41.5 40.7 39.7 42.5 37.5 42.5H9.5C7.28 42.5 5.5 40.7 5.5 38.5V10.5C5.5 8.3 7.28 6.5 9.5 6.5H37.5C39.7 6.5 41.5 8.3 41.5 10.5ZM25.5 30.5H39.5V18.5H25.5V30.5ZM9.5 38.5V10.5H37.5V14.5H25.5C23.3 14.5 21.5 16.3 21.5 18.5V30.5C21.5 32.7 23.3 34.5 25.5 34.5H37.5V38.5H9.5ZM28.5 24.5C28.5 22.8431 29.8431 21.5 31.5 21.5C33.1569 21.5 34.5 22.8431 34.5 24.5C34.5 26.1569 33.1569 27.5 31.5 27.5C29.8431 27.5 28.5 26.1569 28.5 24.5Z" fill="#00B5AE"/>
</svg>
