<svg width="20" height="25" viewBox="0 0 20 25" fill="none" xmlns="http://www.w3.org/2000/svg">
    <circle cx="10" cy="11.5" r="9" stroke="#FCFCFC" stroke-width="2"/>
    <path d="M9.568 14.236C9.36533 14.236 9.20533 14.172 9.088 14.044C8.98133 13.9053 8.928 13.724 8.928 13.5C8.928 13.1693 8.96533 12.86 9.04 12.572C9.12533 12.2733 9.25867 11.9747 9.44 11.676C9.62133 11.3773 9.86133 11.0627 10.16 10.732C10.384 10.476 10.56 10.252 10.688 10.06C10.8267 9.85733 10.9227 9.66533 10.976 9.484C11.04 9.30267 11.072 9.116 11.072 8.924C11.072 8.572 10.944 8.29467 10.688 8.092C10.432 7.88933 10.0693 7.788 9.6 7.788C9.17333 7.788 8.784 7.84667 8.432 7.964C8.09067 8.07067 7.744 8.22533 7.392 8.428C7.15733 8.56667 6.944 8.63067 6.752 8.62C6.57067 8.59867 6.42133 8.52933 6.304 8.412C6.18667 8.29467 6.112 8.15067 6.08 7.98C6.048 7.80933 6.07467 7.63333 6.16 7.452C6.24533 7.27067 6.4 7.10533 6.624 6.956C7.06133 6.668 7.56267 6.44933 8.128 6.3C8.69333 6.14 9.22667 6.06 9.728 6.06C10.4 6.06 10.9867 6.172 11.488 6.396C12 6.62 12.3947 6.92933 12.672 7.324C12.96 7.71867 13.104 8.18267 13.104 8.716C13.104 9.04667 13.056 9.36133 12.96 9.66C12.864 9.948 12.7093 10.2413 12.496 10.54C12.2827 10.828 11.9893 11.1427 11.616 11.484C11.2853 11.7827 11.0187 12.0547 10.816 12.3C10.624 12.5453 10.48 12.78 10.384 13.004C10.2987 13.228 10.24 13.468 10.208 13.724C10.1973 13.8733 10.1333 13.996 10.016 14.092C9.90933 14.188 9.76 14.236 9.568 14.236ZM9.536 17.58C9.17333 17.58 8.88 17.468 8.656 17.244C8.44267 17.02 8.336 16.732 8.336 16.38C8.336 16.0387 8.44267 15.7613 8.656 15.548C8.88 15.324 9.17333 15.212 9.536 15.212C9.90933 15.212 10.1973 15.324 10.4 15.548C10.6133 15.7613 10.72 16.0387 10.72 16.38C10.72 16.732 10.6133 17.02 10.4 17.244C10.1973 17.468 9.90933 17.58 9.536 17.58Z" fill="#FCFCFC"/>
    </svg>
    