<?xml version="1.0" encoding="UTF-8" standalone="no" ?>
<!DOCTYPE svg PUBLIC "-//W3C//DTD SVG 1.1//EN" "http://www.w3.org/Graphics/SVG/1.1/DTD/svg11.dtd">
<svg xmlns="http://www.w3.org/2000/svg" xmlns:xlink="http://www.w3.org/1999/xlink" version="1.1" width="33" height="33" viewBox="0 0 33 33" xml:space="preserve">
<desc>Created with Fabric.js 3.6.3</desc>
<defs>
</defs>
<g transform="matrix(0.99 0 0 0.96 16.4 16.4)"  >
<g style=""   >
		<g transform="matrix(1 0 0 1 0 0)"  >
<circle style="stroke: none; stroke-width: 1; stroke-dasharray: none; stroke-linecap: butt; stroke-dashoffset: 0; stroke-linejoin: miter; stroke-miterlimit: 4; fill: rgb(95,153,166); fill-rule: nonzero; opacity: 1;"  cx="0" cy="0" r="16.5" />
</g>
		<g transform="matrix(1.11 0 0 1.11 1.85 0.53)"  >
<path style="stroke: none; stroke-width: 1; stroke-dasharray: none; stroke-linecap: butt; stroke-dashoffset: 0; stroke-linejoin: miter; stroke-miterlimit: 4; fill: rgb(252,252,252); fill-rule: nonzero; opacity: 1;"  transform=" translate(-11.67, -11.32)" d="M 3.04062 2.69918 C 3.40116 2.33167 3.85836 2.07372 4.35936 1.95515 C 4.86036 1.83658 5.38468 1.86224 5.8717 2.02916 L 19.225 6.49284 C 19.7635 6.66912 20.2341 7.00823 20.5717 7.46337 C 20.9093 7.9185 21.0973 8.46721 21.1097 9.03374 C 21.1221 9.60027 20.9584 10.1567 20.6411 10.6262 C 20.3238 11.0957 19.8685 11.4551 19.3382 11.6549 L 14.3933 13.5422 C 14.2807 13.5853 14.1781 13.6511 14.0921 13.7355 C 14.006 13.8199 13.9383 13.9212 13.8931 14.033 L 12.0057 18.9874 C 11.8136 19.5102 11.465 19.961 11.0073 20.2785 C 10.5497 20.596 10.0053 20.7646 9.44831 20.7615 H 9.38225 C 8.81507 20.7512 8.26534 20.5636 7.8101 20.2252 C 7.35487 19.8867 7.01695 19.4143 6.84371 18.8741 L 2.38003 5.50196 C 2.2177 5.01967 2.19353 4.50159 2.31027 4.00628 C 2.42701 3.51098 2.67999 3.05821 3.04062 2.69918 Z M 4.12587 4.90743 L 8.63673 18.289 C 8.68911 18.4584 8.79431 18.6065 8.93694 18.7118 C 9.07958 18.8171 9.25216 18.874 9.42943 18.8741 C 9.60567 18.877 9.7786 18.8262 9.92526 18.7284 C 10.0719 18.6306 10.1853 18.4906 10.2504 18.3268 L 12.1378 13.3724 C 12.2747 13.0124 12.4857 12.6852 12.7572 12.4121 C 13.0287 12.1389 13.3546 11.9259 13.7138 11.787 L 18.6682 9.89958 C 18.8353 9.83833 18.979 9.72613 19.0789 9.5788 C 19.1788 9.43148 19.2299 9.2565 19.225 9.07856 C 19.2248 8.90128 19.168 8.7287 19.0627 8.58607 C 18.9574 8.44344 18.8093 8.33824 18.6399 8.28586 L 5.2583 3.82218 C 5.10467 3.75956 4.93618 3.74279 4.77322 3.77389 C 4.61025 3.80498 4.45978 3.88262 4.34 3.99741 C 4.22022 4.1122 4.13625 4.25923 4.09825 4.42073 C 4.06025 4.58222 4.06984 4.75127 4.12587 4.90743 Z" stroke-linecap="round" />
</g>
</g>
</g>
</svg>