<svg width="33" height="33" viewBox="0 0 33 33" fill="none" xmlns="http://www.w3.org/2000/svg">
<circle cx="16.5" cy="16.5" r="16.5" fill="#5F99A6"/>
<path d="M20.1605 24.1669L25.1247 24.1669C25.3788 24.1669 25.6226 24.0659 25.8023 23.8862C25.982 23.7065 26.083 23.4627 26.083 23.2086C26.083 22.9544 25.982 22.7107 25.8023 22.5309C25.6226 22.3512 25.3788 22.2502 25.1247 22.2502L20.1605 22.2502C19.9591 21.6952 19.5916 21.2157 19.1081 20.8768C18.6246 20.5379 18.0485 20.3561 17.458 20.3561C16.8676 20.3561 16.2914 20.5379 15.8079 20.8768C15.3244 21.2157 14.957 21.6952 14.7555 22.2502L7.87467 22.2502C7.62051 22.2502 7.37675 22.3512 7.19703 22.5309C7.01731 22.7107 6.91634 22.9544 6.91634 23.2086C6.91634 23.4627 7.01731 23.7065 7.19703 23.8862C7.37675 24.0659 7.62051 24.1669 7.87467 24.1669L14.7555 24.1669C14.957 24.7219 15.3244 25.2015 15.8079 25.5404C16.2914 25.8792 16.8676 26.061 17.458 26.061C18.0485 26.061 18.6246 25.8792 19.1081 25.5404C19.5916 25.2015 19.9591 24.7219 20.1605 24.1669ZM16.4997 23.2086C16.4997 23.019 16.5559 22.8338 16.6612 22.6762C16.7665 22.5186 16.9162 22.3957 17.0913 22.3232C17.2664 22.2507 17.4591 22.2317 17.645 22.2687C17.8309 22.3056 18.0016 22.3969 18.1357 22.5309C18.2697 22.665 18.3609 22.8357 18.3979 23.0216C18.4349 23.2075 18.4159 23.4002 18.3434 23.5753C18.2709 23.7504 18.148 23.9001 17.9904 24.0054C17.8328 24.1107 17.6475 24.1669 17.458 24.1669C17.2038 24.1669 16.9601 24.0659 16.7804 23.8862C16.6006 23.7065 16.4997 23.4627 16.4997 23.2086ZM14.4105 17.4586L25.1247 17.4586C25.3788 17.4586 25.6226 17.3576 25.8023 17.1779C25.982 16.9982 26.083 16.7544 26.083 16.5002C26.083 16.2461 25.982 16.0023 25.8023 15.8226C25.6226 15.6429 25.3788 15.5419 25.1247 15.5419L14.4105 15.5419C14.2091 14.9869 13.8416 14.5074 13.3581 14.1685C12.8746 13.8296 12.2985 13.6478 11.708 13.6478C11.1176 13.6478 10.5414 13.8296 10.0579 14.1685C9.5744 14.5074 9.20695 14.9869 9.00551 15.5419L7.87467 15.5419C7.62051 15.5419 7.37675 15.6429 7.19703 15.8226C7.01731 16.0023 6.91634 16.2461 6.91634 16.5002C6.91634 16.7544 7.01731 16.9982 7.19703 17.1779C7.37675 17.3576 7.62051 17.4586 7.87467 17.4586L9.00551 17.4586C9.20695 18.0136 9.5744 18.4931 10.0579 18.832C10.5414 19.1709 11.1176 19.3527 11.708 19.3527C12.2985 19.3527 12.8746 19.1709 13.3581 18.832C13.8416 18.4931 14.2091 18.0136 14.4105 17.4586ZM10.7497 16.5002C10.7497 16.3107 10.8059 16.1254 10.9112 15.9678C11.0165 15.8102 11.1662 15.6874 11.3413 15.6149C11.5164 15.5423 11.7091 15.5233 11.895 15.5603C12.0809 15.5973 12.2516 15.6886 12.3857 15.8226C12.5197 15.9566 12.6109 16.1274 12.6479 16.3133C12.6849 16.4992 12.6659 16.6919 12.5934 16.867C12.5209 17.0421 12.398 17.1918 12.2404 17.2971C12.0828 17.4024 11.8975 17.4586 11.708 17.4586C11.4538 17.4586 11.2101 17.3576 11.0304 17.1779C10.8506 16.9982 10.7497 16.7544 10.7497 16.5002ZM22.0772 10.7502L25.1247 10.7502C25.3788 10.7502 25.6226 10.6493 25.8023 10.4696C25.982 10.2898 26.083 10.0461 26.083 9.79191C26.083 9.53774 25.982 9.29399 25.8023 9.11427C25.6226 8.93454 25.3788 8.83358 25.1247 8.83358L22.0772 8.83358C21.8757 8.27856 21.5083 7.79902 21.0248 7.46013C20.5413 7.12125 19.9651 6.93945 19.3747 6.93945C18.7842 6.93945 18.2081 7.12125 17.7246 7.46013C17.2411 7.79902 16.8736 8.27856 16.6722 8.83358L7.87467 8.83358C7.62051 8.83358 7.37675 8.93454 7.19703 9.11427C7.01731 9.29399 6.91634 9.53774 6.91634 9.79191C6.91634 10.0461 7.01731 10.2898 7.19703 10.4696C7.37675 10.6493 7.62051 10.7502 7.87467 10.7502L16.6722 10.7502C16.8736 11.3053 17.2411 11.7848 17.7246 12.1237C18.2081 12.4626 18.7842 12.6444 19.3747 12.6444C19.9651 12.6444 20.5413 12.4626 21.0248 12.1237C21.5083 11.7848 21.8757 11.3053 22.0772 10.7502ZM18.4163 9.79191C18.4163 9.60237 18.4725 9.41709 18.5778 9.25949C18.6832 9.10189 18.8328 8.97906 19.0079 8.90653C19.183 8.83399 19.3757 8.81501 19.5616 8.85199C19.7475 8.88897 19.9183 8.98024 20.0523 9.11427C20.1863 9.24829 20.2776 9.41905 20.3146 9.60495C20.3516 9.79085 20.3326 9.98354 20.2601 10.1586C20.1875 10.3338 20.0647 10.4834 19.9071 10.5887C19.7495 10.694 19.5642 10.7502 19.3747 10.7502C19.1205 10.7502 18.8768 10.6493 18.697 10.4696C18.5173 10.2898 18.4163 10.0461 18.4163 9.79191Z" fill="#FCFCFC"/>
</svg>
