<?xml version="1.0" encoding="UTF-8" standalone="no" ?>
<!DOCTYPE svg PUBLIC "-//W3C//DTD SVG 1.1//EN" "http://www.w3.org/Graphics/SVG/1.1/DTD/svg11.dtd">
<svg xmlns="http://www.w3.org/2000/svg" xmlns:xlink="http://www.w3.org/1999/xlink" version="1.1" width="33" height="33" viewBox="0 0 33 33" xml:space="preserve">
<desc>Created with Fabric.js 3.6.3</desc>
<defs>
</defs>
<g transform="matrix(0.99 0 0 0.96 16.4 16.4)"  >
<g style=""   >
		<g transform="matrix(1 0 0 1 0 0)"  >
<circle style="stroke: none; stroke-width: 1; stroke-dasharray: none; stroke-linecap: butt; stroke-dashoffset: 0; stroke-linejoin: miter; stroke-miterlimit: 4; fill: rgb(95,153,166); fill-rule: nonzero; opacity: 1;"  cx="0" cy="0" r="16.5" />
</g>
		<g transform="matrix(1 0 0 1 -0.23 0.25)"  >
<path style="stroke: none; stroke-width: 1; stroke-dasharray: none; stroke-linecap: butt; stroke-dashoffset: 0; stroke-linejoin: miter; stroke-miterlimit: 4; fill: rgb(252,252,252); fill-rule: nonzero; opacity: 1;"  transform=" translate(-9.24, -10)" d="M 5.13514 15 C 5.40752 15 5.66875 14.8946 5.86135 14.7071 C 6.05396 14.5196 6.16216 14.2652 6.16216 14 C 6.1672 13.9334 6.1672 13.8666 6.16216 13.8 C 6.15092 13.7374 6.13015 13.6767 6.10054 13.62 C 6.07806 13.5563 6.04698 13.4957 6.00811 13.44 L 5.88486 13.29 C 5.78719 13.199 5.67202 13.1276 5.54595 13.08 C 5.35396 12.992 5.13869 12.964 4.92973 13 L 4.74487 13.06 L 4.56 13.15 C 4.5062 13.1869 4.45475 13.227 4.40595 13.27 L 4.2827 13.42 C 4.24383 13.4757 4.21275 13.5363 4.19027 13.6 C 4.16066 13.6567 4.13989 13.7174 4.12865 13.78 C 4.12361 13.8466 4.12361 13.9134 4.12865 13.98 C 4.12865 14.2452 4.23685 14.4996 4.42946 14.6871 C 4.62206 14.8746 4.88329 14.98 5.15568 14.98 L 5.13514 15 Z M 13.3514 15 C 13.6237 15 13.885 14.8946 14.0776 14.7071 C 14.2702 14.5196 14.3784 14.2652 14.3784 14 C 14.3834 13.9334 14.3834 13.8666 14.3784 13.8 C 14.3671 13.7374 14.3464 13.6767 14.3168 13.62 C 14.2943 13.5563 14.2632 13.4957 14.2243 13.44 L 14.1011 13.29 C 14.0013 13.2017 13.8866 13.1306 13.7622 13.08 C 13.5121 12.98 13.2317 12.98 12.9816 13.08 C 12.8572 13.1306 12.7425 13.2017 12.6427 13.29 L 12.5195 13.44 C 12.4806 13.4957 12.4495 13.5563 12.427 13.62 C 12.3974 13.6767 12.3766 13.7374 12.3654 13.8 C 12.3604 13.8666 12.3604 13.9334 12.3654 14 C 12.3665 14.2623 12.4735 14.5137 12.6632 14.7 C 12.8453 14.8813 13.0912 14.9886 13.3514 15 Z M 10.2703 3 H 8.21622 C 7.94383 3 7.6826 3.10536 7.49 3.29289 C 7.29739 3.48043 7.18919 3.73478 7.18919 4 C 7.18919 4.26522 7.29739 4.51957 7.49 4.70711 C 7.6826 4.89464 7.94383 5 8.21622 5 H 10.2703 C 10.5427 5 10.8039 4.89464 10.9965 4.70711 C 11.1891 4.51957 11.2973 4.26522 11.2973 4 C 11.2973 3.73478 11.1891 3.48043 10.9965 3.29289 C 10.8039 3.10536 10.5427 3 10.2703 3 Z M 15.4054 0 H 3.08108 C 2.26393 0 1.48024 0.316071 0.902428 0.87868 C 0.324613 1.44129 0 2.20435 0 3 V 15 C 0.00178653 15.6189 0.200146 16.2222 0.567883 16.7271 C 0.93562 17.2319 1.45473 17.6137 2.05405 17.82 V 19 C 2.05405 19.2652 2.16226 19.5196 2.35486 19.7071 C 2.54747 19.8946 2.8087 20 3.08108 20 C 3.35347 20 3.61469 19.8946 3.8073 19.7071 C 3.9999 19.5196 4.10811 19.2652 4.10811 19 V 18 H 14.3784 V 19 C 14.3784 19.2652 14.4866 19.5196 14.6792 19.7071 C 14.8718 19.8946 15.133 20 15.4054 20 C 15.6778 20 15.939 19.8946 16.1316 19.7071 C 16.3242 19.5196 16.4324 19.2652 16.4324 19 V 17.82 C 17.0318 17.6137 17.5509 17.2319 17.9186 16.7271 C 18.2863 16.2222 18.4847 15.6189 18.4865 15 V 3 C 18.4865 2.20435 18.1619 1.44129 17.5841 0.87868 C 17.0062 0.316071 16.2226 0 15.4054 0 Z M 16.4324 15 C 16.4324 15.2652 16.3242 15.5196 16.1316 15.7071 C 15.939 15.8946 15.6778 16 15.4054 16 H 3.08108 C 2.8087 16 2.54747 15.8946 2.35486 15.7071 C 2.16226 15.5196 2.05405 15.2652 2.05405 15 V 12 H 16.4324 V 15 Z M 16.4324 10 H 2.05405 V 3 C 2.05405 2.73478 2.16226 2.48043 2.35486 2.29289 C 2.54747 2.10536 2.8087 2 3.08108 2 H 15.4054 C 15.6778 2 15.939 2.10536 16.1316 2.29289 C 16.3242 2.48043 16.4324 2.73478 16.4324 3 V 10 Z" stroke-linecap="round" />
</g>
</g>
</g>
</svg>