<svg width="39" height="39" viewBox="0 0 39 39" fill="none" xmlns="http://www.w3.org/2000/svg">
<g filter="url(#filter0_d_2183_11887)">
<circle cx="18.5" cy="17.5" r="16.5" fill="#5F99A6"/>
<path d="M14.1351 23C14.4075 23 14.6687 22.8946 14.8614 22.7071C15.054 22.5196 15.1622 22.2652 15.1622 22C15.1672 21.9334 15.1672 21.8666 15.1622 21.8C15.1509 21.7374 15.1302 21.6767 15.1005 21.62C15.0781 21.5563 15.047 21.4957 15.0081 21.44L14.8849 21.29C14.7872 21.199 14.672 21.1276 14.5459 21.08C14.354 20.992 14.1387 20.964 13.9297 21L13.7449 21.06L13.56 21.15C13.5062 21.1869 13.4548 21.227 13.4059 21.27L13.2827 21.42C13.2438 21.4757 13.2128 21.5363 13.1903 21.6C13.1607 21.6567 13.1399 21.7174 13.1286 21.78C13.1236 21.8466 13.1236 21.9134 13.1286 21.98C13.1286 22.2452 13.2369 22.4996 13.4295 22.6871C13.6221 22.8746 13.8833 22.98 14.1557 22.98L14.1351 23ZM22.3514 23C22.6237 23 22.885 22.8946 23.0776 22.7071C23.2702 22.5196 23.3784 22.2652 23.3784 22C23.3834 21.9334 23.3834 21.8666 23.3784 21.8C23.3671 21.7374 23.3464 21.6767 23.3168 21.62C23.2943 21.5563 23.2632 21.4957 23.2243 21.44L23.1011 21.29C23.0013 21.2017 22.8866 21.1306 22.7622 21.08C22.5121 20.98 22.2317 20.98 21.9816 21.08C21.8572 21.1306 21.7425 21.2017 21.6427 21.29L21.5195 21.44C21.4806 21.4957 21.4495 21.5563 21.427 21.62C21.3974 21.6767 21.3766 21.7374 21.3654 21.8C21.3604 21.8666 21.3604 21.9334 21.3654 22C21.3665 22.2623 21.4735 22.5137 21.6632 22.7C21.8453 22.8813 22.0912 22.9886 22.3514 23ZM19.2703 11H17.2162C16.9438 11 16.6826 11.1054 16.49 11.2929C16.2974 11.4804 16.1892 11.7348 16.1892 12C16.1892 12.2652 16.2974 12.5196 16.49 12.7071C16.6826 12.8946 16.9438 13 17.2162 13H19.2703C19.5427 13 19.8039 12.8946 19.9965 12.7071C20.1891 12.5196 20.2973 12.2652 20.2973 12C20.2973 11.7348 20.1891 11.4804 19.9965 11.2929C19.8039 11.1054 19.5427 11 19.2703 11ZM24.4054 8H12.0811C11.2639 8 10.4802 8.31607 9.90243 8.87868C9.32461 9.44129 9 10.2044 9 11V23C9.00179 23.6189 9.20015 24.2222 9.56788 24.7271C9.93562 25.2319 10.4547 25.6137 11.0541 25.82V27C11.0541 27.2652 11.1623 27.5196 11.3549 27.7071C11.5475 27.8946 11.8087 28 12.0811 28C12.3535 28 12.6147 27.8946 12.8073 27.7071C12.9999 27.5196 13.1081 27.2652 13.1081 27V26H23.3784V27C23.3784 27.2652 23.4866 27.5196 23.6792 27.7071C23.8718 27.8946 24.133 28 24.4054 28C24.6778 28 24.939 27.8946 25.1316 27.7071C25.3242 27.5196 25.4324 27.2652 25.4324 27V25.82C26.0318 25.6137 26.5509 25.2319 26.9186 24.7271C27.2863 24.2222 27.4847 23.6189 27.4865 23V11C27.4865 10.2044 27.1619 9.44129 26.5841 8.87868C26.0062 8.31607 25.2226 8 24.4054 8ZM25.4324 23C25.4324 23.2652 25.3242 23.5196 25.1316 23.7071C24.939 23.8946 24.6778 24 24.4054 24H12.0811C11.8087 24 11.5475 23.8946 11.3549 23.7071C11.1623 23.5196 11.0541 23.2652 11.0541 23V20H25.4324V23ZM25.4324 18H11.0541V11C11.0541 10.7348 11.1623 10.4804 11.3549 10.2929C11.5475 10.1054 11.8087 10 12.0811 10H24.4054C24.6778 10 24.939 10.1054 25.1316 10.2929C25.3242 10.4804 25.4324 10.7348 25.4324 11V18Z" fill="#FCFCFC"/>
</g>
<defs>
<filter id="filter0_d_2183_11887" x="0" y="0" width="39" height="39" filterUnits="userSpaceOnUse" color-interpolation-filters="sRGB">
<feFlood flood-opacity="0" result="BackgroundImageFix"/>
<feColorMatrix in="SourceAlpha" type="matrix" values="0 0 0 0 0 0 0 0 0 0 0 0 0 0 0 0 0 0 127 0" result="hardAlpha"/>
<feOffset dx="1" dy="2"/>
<feGaussianBlur stdDeviation="1.5"/>
<feComposite in2="hardAlpha" operator="out"/>
<feColorMatrix type="matrix" values="0 0 0 0 0 0 0 0 0 0 0 0 0 0 0 0 0 0 0.15 0"/>
<feBlend mode="normal" in2="BackgroundImageFix" result="effect1_dropShadow_2183_11887"/>
<feBlend mode="normal" in="SourceGraphic" in2="effect1_dropShadow_2183_11887" result="shape"/>
</filter>
</defs>
</svg>
