<svg width="33" height="33" viewBox="0 0 33 33" fill="none" xmlns="http://www.w3.org/2000/svg">
<circle cx="16.5" cy="16.5" r="16.5" fill="#5F99A6"/>
<path d="M24.7473 23.4825L21.4102 20.17C22.7056 18.5537 23.3329 16.5021 23.1631 14.4372C22.9934 12.3723 22.0396 10.4509 20.4978 9.06813C18.9559 7.68538 16.9433 6.94636 14.8738 7.00303C12.8042 7.05971 10.835 7.90777 9.37103 9.37283C7.90708 10.8379 7.05966 12.8086 7.00303 14.8797C6.9464 16.9509 7.68486 18.965 9.06656 20.508C10.4483 22.051 12.3682 23.0056 14.4316 23.1754C16.4949 23.3453 18.5449 22.7175 20.16 21.4212L23.47 24.7337C23.5536 24.8181 23.6531 24.8851 23.7627 24.9308C23.8723 24.9765 23.9899 25 24.1086 25C24.2274 25 24.3449 24.9765 24.4546 24.9308C24.5642 24.8851 24.6636 24.8181 24.7473 24.7337C24.9094 24.5659 25 24.3416 25 24.1081C25 23.8747 24.9094 23.6504 24.7473 23.4825ZM15.114 21.4212C13.8687 21.4212 12.6514 21.0516 11.616 20.3593C10.5806 19.6669 9.77355 18.6828 9.297 17.5315C8.82045 16.3801 8.69577 15.1132 8.93871 13.8909C9.18165 12.6686 9.78131 11.5459 10.6619 10.6646C11.5424 9.78343 12.6643 9.18331 13.8856 8.94018C15.107 8.69706 16.373 8.82184 17.5235 9.29875C18.674 9.77566 19.6573 10.5833 20.3491 11.6195C21.041 12.6557 21.4102 13.8739 21.4102 15.1202C21.4102 16.7913 20.7469 18.394 19.5661 19.5757C18.3853 20.7573 16.7839 21.4212 15.114 21.4212Z" fill="#FCFCFC"/>
</svg>
