<svg width="33" height="33" viewBox="0 0 33 33" fill="none" xmlns="http://www.w3.org/2000/svg">
    <circle cx="16.5" cy="16.5" r="16.5" fill="#FCFCFC"/>
    <path d="M18.4158 16.0041L24.7158 9.71409C24.9041 9.52579 25.0099 9.27039 25.0099 9.00409C25.0099 8.73779 24.9041 8.4824 24.7158 8.29409C24.5275 8.10579 24.2721 8 24.0058 8C23.7395 8 23.4841 8.10579 23.2958 8.29409L17.0058 14.5941L10.7158 8.29409C10.5275 8.10579 10.2721 8 10.0058 8C9.7395 8 9.4841 8.10579 9.2958 8.29409C9.10749 8.4824 9.00171 8.73779 9.00171 9.00409C9.00171 9.27039 9.10749 9.52579 9.2958 9.71409L15.5958 16.0041L9.2958 22.2941C9.20207 22.3871 9.12768 22.4977 9.07691 22.6195C9.02614 22.7414 9 22.8721 9 23.0041C9 23.1361 9.02614 23.2668 9.07691 23.3887C9.12768 23.5105 9.20207 23.6211 9.2958 23.7141C9.38876 23.8078 9.49936 23.8822 9.62122 23.933C9.74308 23.9838 9.87379 24.0099 10.0058 24.0099C10.1378 24.0099 10.2685 23.9838 10.3904 23.933C10.5122 23.8822 10.6228 23.8078 10.7158 23.7141L17.0058 17.4141L23.2958 23.7141C23.3888 23.8078 23.4994 23.8822 23.6212 23.933C23.7431 23.9838 23.8738 24.0099 24.0058 24.0099C24.1378 24.0099 24.2685 23.9838 24.3904 23.933C24.5122 23.8822 24.6228 23.8078 24.7158 23.7141C24.8095 23.6211 24.8839 23.5105 24.9347 23.3887C24.9855 23.2668 25.0116 23.1361 25.0116 23.0041C25.0116 22.8721 24.9855 22.7414 24.9347 22.6195C24.8839 22.4977 24.8095 22.3871 24.7158 22.2941L18.4158 16.0041Z" fill="#A0A0A0"/>
    </svg>
    