<svg width="49" height="48" viewBox="0 0 49 48" fill="none" xmlns="http://www.w3.org/2000/svg">
<path fill-rule="evenodd" clip-rule="evenodd" d="M6.5 12H42.5V8H6.5C4.3 8 2.5 9.8 2.5 12V36C2.5 38.2 4.3 40 6.5 40H14.5V36H6.5V12ZM26.5 24H18.5V27.56C17.28 28.66 16.5 30.22 16.5 32C16.5 33.78 17.28 35.34 18.5 36.44V40H26.5V36.44C27.72 35.34 28.5 33.76 28.5 32C28.5 30.24 27.72 28.66 26.5 27.56V24ZM19.5 32C19.5 33.66 20.84 35 22.5 35C24.16 35 25.5 33.66 25.5 32C25.5 30.34 24.16 29 22.5 29C20.84 29 19.5 30.34 19.5 32ZM44.5 16H32.5C31.5 16 30.5 17 30.5 18V38C30.5 39 31.5 40 32.5 40H44.5C45.5 40 46.5 39 46.5 38V18C46.5 17 45.5 16 44.5 16ZM34.5 36H42.5V20H34.5V36Z" fill="#6A2C90"/>
</svg>
