<svg width="49" height="49" viewBox="0 0 49 49" fill="none" xmlns="http://www.w3.org/2000/svg">
    <g filter="url(#filter0_d_1661_35129)">
    <circle cx="24.5" cy="20.5" r="16.5" fill="#FCFCFC"/>
    <path d="M26.4158 20.0041L32.7158 13.7141C32.9041 13.5258 33.0099 13.2704 33.0099 13.0041C33.0099 12.7378 32.9041 12.4824 32.7158 12.2941C32.5275 12.1058 32.2721 12 32.0058 12C31.7395 12 31.4841 12.1058 31.2958 12.2941L25.0058 18.5941L18.7158 12.2941C18.5275 12.1058 18.2721 12 18.0058 12C17.7395 12 17.4841 12.1058 17.2958 12.2941C17.1075 12.4824 17.0017 12.7378 17.0017 13.0041C17.0017 13.2704 17.1075 13.5258 17.2958 13.7141L23.5958 20.0041L17.2958 26.2941C17.2021 26.3871 17.1277 26.4977 17.0769 26.6195C17.0261 26.7414 17 26.8721 17 27.0041C17 27.1361 17.0261 27.2668 17.0769 27.3887C17.1277 27.5105 17.2021 27.6211 17.2958 27.7141C17.3888 27.8078 17.4994 27.8822 17.6212 27.933C17.7431 27.9838 17.8738 28.0099 18.0058 28.0099C18.1378 28.0099 18.2685 27.9838 18.3904 27.933C18.5122 27.8822 18.6228 27.8078 18.7158 27.7141L25.0058 21.4141L31.2958 27.7141C31.3888 27.8078 31.4994 27.8822 31.6212 27.933C31.7431 27.9838 31.8738 28.0099 32.0058 28.0099C32.1378 28.0099 32.2685 27.9838 32.3904 27.933C32.5122 27.8822 32.6228 27.8078 32.7158 27.7141C32.8095 27.6211 32.8839 27.5105 32.9347 27.3887C32.9855 27.2668 33.0116 27.1361 33.0116 27.0041C33.0116 26.8721 32.9855 26.7414 32.9347 26.6195C32.8839 26.4977 32.8095 26.3871 32.7158 26.2941L26.4158 20.0041Z" fill="#A0A0A0"/>
    </g>
    <defs>
    <filter id="filter0_d_1661_35129" x="0" y="0" width="49" height="49" filterUnits="userSpaceOnUse" color-interpolation-filters="sRGB">
    <feFlood flood-opacity="0" result="BackgroundImageFix"/>
    <feColorMatrix in="SourceAlpha" type="matrix" values="0 0 0 0 0 0 0 0 0 0 0 0 0 0 0 0 0 0 127 0" result="hardAlpha"/>
    <feOffset dy="4"/>
    <feGaussianBlur stdDeviation="4"/>
    <feComposite in2="hardAlpha" operator="out"/>
    <feColorMatrix type="matrix" values="0 0 0 0 0.403922 0 0 0 0 0.403922 0 0 0 0 0.403922 0 0 0 0.5 0"/>
    <feBlend mode="normal" in2="BackgroundImageFix" result="effect1_dropShadow_1661_35129"/>
    <feBlend mode="normal" in="SourceGraphic" in2="effect1_dropShadow_1661_35129" result="shape"/>
    </filter>
    </defs>
    </svg>
    