<svg width="100%" height="100%" viewBox="0 0 154 50" fill="none" xmlns="http://www.w3.org/2000/svg">
<g clip-path="url(#clip0_806_162526)">
<path d="M120.751 14.5281H122.68C122.68 14.5281 149.448 19.7212 149.448 30.2709C149.448 30.2709 158.709 43.5845 90.4783 49.9922C90.5964 49.9922 153.118 48.9333 153.819 32.1706C153.819 32.1706 158.363 18.5066 121.27 12.4493L120.751 14.5281Z" fill="#D9D8D7"/>
<path d="M0.0236344 31.6568C-0.157496 45.3364 51.6378 47.2283 51.6378 47.2283C6.31594 42.2143 4.04787 33.9147 4.04787 33.9147C-0.67726 22.6565 26.7994 17.6425 26.7994 17.6425C29.9495 17.1364 27.327 15.9141 27.327 15.9141C-1.89792 20.7646 0.0236344 31.6568 0.0236344 31.6568Z" fill="#D9D8D7"/>
<path d="M26.7994 25.6929C26.7994 25.6929 69.2075 44.9159 122.287 25.981C122.609 24.5173 122.767 22.9835 122.767 21.4108C122.767 9.58424 113.348 0 101.732 0C91.581 0 83.123 7.31081 81.1227 17.0352C79.0121 16.5525 76.8228 16.2955 74.5548 16.2955C72.2946 16.2955 70.1131 16.5525 67.9868 17.0352C66.0102 7.31081 57.5364 0 47.3852 0C35.7693 0 26.3427 9.58424 26.3427 21.403C26.3427 22.8823 26.4923 24.3304 26.7837 25.7319L26.7994 25.6929Z" fill="#B1E543"/>
<path d="M55.0714 32.9648C58.7098 30.45 61.096 26.2224 61.096 21.4108C61.096 13.7185 54.9612 7.46655 47.4009 7.46655C39.825 7.46655 33.6902 13.7185 33.6902 21.4108C33.6902 24.1358 34.462 26.6817 35.7929 28.8384C40.5889 30.2554 47.1411 31.8593 55.0714 32.9648Z" fill="white"/>
<path d="M49.5902 7.62999C54.0948 7.31077 58.0009 10.6509 58.3238 15.0965C58.6545 19.55 55.2682 23.4117 50.7714 23.7309C46.2747 24.0501 42.3607 20.71 42.0378 16.2566C41.7071 11.8109 45.0934 7.95699 49.5902 7.62999Z" fill="#EF4632"/>
<path d="M47.1568 10.5731C48.6452 10.4719 49.9446 11.5774 50.0549 13.0567C50.1651 14.5282 49.039 15.8207 47.5505 15.9297C46.0543 16.0387 44.7548 14.9175 44.6446 13.446C44.5343 11.9745 45.6526 10.6821 47.1568 10.5731Z" fill="white"/>
<path d="M93.9987 32.9181C100.189 32.0461 106.662 30.7226 113.34 28.815C114.663 26.674 115.427 24.1358 115.427 21.4108C115.427 13.7185 109.3 7.46655 101.724 7.46655C94.1483 7.46655 88.0293 13.7185 88.0293 21.4108C88.0293 26.1835 90.3919 30.4033 93.9987 32.9181Z" fill="white"/>
<path d="M104.614 7.69237C109.127 7.80137 112.694 11.484 112.6 15.9297C112.505 20.3987 108.765 23.9256 104.252 23.8244C99.7476 23.731 96.1722 20.0405 96.2746 15.5715C96.377 11.1259 100.11 7.59894 104.614 7.69237Z" fill="#EF4632"/>
<path d="M101.905 10.4017C103.402 10.4407 104.599 11.6708 104.559 13.1423C104.52 14.6216 103.284 15.805 101.787 15.7739C100.283 15.735 99.1018 14.5126 99.1333 13.0255C99.1648 11.5462 100.401 10.3706 101.905 10.4017Z" fill="white"/>
</g>
<defs>
<clipPath id="clip0_806_162526">
<rect width="154" height="50" fill="white"/>
</clipPath>
</defs>
</svg>
