<svg width="100%" height="100%" viewBox="0 0 170 54" fill="none" xmlns="http://www.w3.org/2000/svg">
<g clip-path="url(#clip0_2357_51934)">
<path d="M28.409 6.70345C27.4268 6.70345 26.5201 6.77793 25.6135 7.00138C24.7824 2.97931 21.1557 0 16.849 0C11.8624 0 7.85791 3.94759 7.85791 8.86345C7.85791 13.4069 11.2579 17.0566 15.7157 17.6524C15.6401 18.2483 15.5646 18.8441 15.5646 19.44C15.5646 22.9407 17.0001 26.1435 19.4179 28.4524L27.8046 37.1669C27.9557 37.3159 28.1824 37.4648 28.409 37.4648C28.6357 37.4648 28.8624 37.3903 29.0135 37.1669L37.4001 28.3034C39.7424 25.9945 41.2535 22.8662 41.2535 19.291C41.2535 18.6952 41.1779 18.0993 41.1024 17.5034C45.5601 16.9821 48.9601 13.2579 48.9601 8.71448C48.9601 3.94759 44.9557 0 39.969 0C35.6624 0 32.0357 2.97931 31.2046 7.00138C30.2979 6.85241 29.3912 6.70345 28.409 6.70345Z" fill="#BDD035"/>
<path d="M44.7293 48.6373C45.1826 47.8924 44.8804 46.9242 44.1249 46.4773L41.9337 45.2855C41.7071 45.1366 41.6315 44.9131 41.6315 44.7642C41.6315 44.5407 41.8582 44.3918 42.0849 44.3918L45.5604 44.6897C46.1649 44.7642 46.8449 44.4662 47.1471 43.8704C47.6004 43.0511 47.2982 42.0828 46.5426 41.6359C46.316 41.4869 46.0893 41.4869 45.8626 41.4124L30.1471 40.1462C29.996 40.1462 29.8449 40.2207 29.7693 40.3697C29.6938 40.5187 29.6938 40.6676 29.7693 40.7421L38.9871 53.3297C39.1382 53.4787 39.2893 53.6276 39.516 53.7766C40.3471 54.2235 41.3293 53.9256 41.7826 53.1807C42.0849 52.5849 42.0849 51.9145 41.7071 51.3931L39.6671 48.6373C39.516 48.4883 39.5915 48.1904 39.7426 48.1159C39.8937 48.0414 40.1204 47.9669 40.3471 48.1159L42.5382 49.3076C43.2937 49.68 44.276 49.4566 44.7293 48.6373Z" fill="#BDD035"/>
<path d="M12.0889 48.6373C12.5422 49.3821 13.5244 49.68 14.28 49.2331L16.4711 48.0414C16.6977 47.8924 16.9244 47.9669 17.0755 48.0414C17.2266 48.1904 17.3022 48.4138 17.1511 48.5628L15.1866 51.3931C14.8089 51.9145 14.7333 52.5849 15.1111 53.1807C15.5644 54 16.6222 54.2235 17.3777 53.7766C17.6044 53.6276 17.7555 53.4787 17.9066 53.3297L27.1244 40.7421C27.2 40.5931 27.2 40.4442 27.1244 40.3697C27.0489 40.2207 26.8977 40.1462 26.7466 40.1462L11.0311 41.4124C10.8044 41.4124 10.5777 41.4869 10.3511 41.6359C9.51997 42.0828 9.2933 43.1256 9.74664 43.8704C10.0489 44.4662 10.7289 44.7642 11.3333 44.6897L14.8089 44.3918C15.0355 44.3918 15.1866 44.5407 15.2622 44.7642C15.2622 44.9131 15.1866 45.1366 14.96 45.2855L12.7689 46.4773C11.9377 46.9987 11.7111 47.8924 12.0889 48.6373Z" fill="#BDD035"/>
<path d="M45.8619 8.86368C45.8619 12.0664 43.2174 14.5989 40.0441 14.5989C36.7952 14.5989 34.2263 11.992 34.2263 8.86368C34.2263 5.66092 36.8708 3.12851 40.0441 3.12851C43.2174 3.05403 45.8619 5.66092 45.8619 8.86368Z" fill="white"/>
<path d="M43.5199 8.86333C43.5199 10.7999 41.9333 12.2895 40.0444 12.2895C38.08 12.2895 36.5688 10.7254 36.5688 8.86333C36.5688 6.92678 38.1555 5.43712 40.0444 5.43712C41.9333 5.36264 43.5199 6.92678 43.5199 8.86333Z" fill="#E02026"/>
<path d="M42.3113 7.67193C42.3113 8.34227 41.7824 8.78917 41.178 8.78917C40.498 8.78917 40.0447 8.26779 40.0447 7.67193C40.0447 7.07607 40.5736 6.55469 41.178 6.55469C41.7824 6.55469 42.3113 7.07607 42.3113 7.67193Z" fill="white"/>
<path d="M22.667 8.86368C22.667 12.0664 20.0226 14.5989 16.8493 14.5989C13.6004 14.5989 11.0315 11.992 11.0315 8.86368C11.0315 5.66092 13.6759 3.12851 16.8493 3.12851C20.0982 3.05403 22.667 5.66092 22.667 8.86368Z" fill="white"/>
<path d="M20.3998 8.86333C20.3998 10.7999 18.8132 12.2895 16.9243 12.2895C14.9598 12.2895 13.4487 10.7254 13.4487 8.86333C13.4487 6.92678 15.0354 5.43712 16.9243 5.43712C18.8132 5.36264 20.3998 6.92678 20.3998 8.86333Z" fill="#E02026"/>
<path d="M19.191 7.67193C19.191 8.34227 18.6621 8.78917 18.0576 8.78917C17.3776 8.78917 16.9243 8.26779 16.9243 7.67193C16.9243 7.07607 17.4532 6.55469 18.0576 6.55469C18.6621 6.55469 19.191 7.07607 19.191 7.67193Z" fill="white"/>
<path d="M29.7688 38.6567C29.6933 38.5077 29.7688 38.2843 29.8444 38.2098C30.2977 37.7629 30.7511 37.316 31.2044 36.8691C33.3955 34.7836 35.36 32.6236 37.5511 30.6126C40.0444 28.3781 42.4622 25.4732 45.6355 24.0581C47.1466 23.3877 53.3422 21.6746 56.0622 28.3036C58.7822 35.007 53.04 37.9119 51.4533 38.4332C48.2044 39.5505 44.4266 39.1781 41.0266 39.1781C38.0044 39.1781 35.0577 38.9546 32.0355 38.9546C31.3555 38.9546 30.7511 38.8801 30.0711 38.9546C30.0711 38.9546 29.8444 38.8801 29.7688 38.6567Z" fill="#BDD035"/>
<path d="M27.0491 38.6567C27.1246 38.5077 27.0491 38.2843 26.898 38.2098C26.4446 37.7629 25.9913 37.316 25.538 36.8691C23.3469 34.7836 21.3824 32.6236 19.1913 30.6126C16.698 28.3781 14.2802 25.4732 11.1069 24.0581C9.59575 23.3877 3.4002 21.6746 0.680198 28.3036C-1.96425 35.007 3.77798 37.9863 5.28909 38.5077C8.53798 39.625 12.3158 39.2526 15.7158 39.2526C18.738 39.2526 21.6846 39.0291 24.7069 39.0291C25.3869 39.0291 25.9913 38.9546 26.6713 39.0291C26.8224 38.9546 26.9735 38.8801 27.0491 38.6567Z" fill="#BDD035"/>
<path d="M97.0134 8.56544C98.2978 8.56544 99.3556 7.52268 99.3556 6.25647C99.3556 4.99027 98.2978 3.94751 97.0134 3.94751C95.7289 3.94751 94.6711 4.99027 94.6711 6.25647C94.6711 7.52268 95.7289 8.56544 97.0134 8.56544Z" fill="#E02026"/>
<path d="M106.761 8.56544C108.045 8.56544 109.103 7.52268 109.103 6.25647C109.103 4.99027 108.045 3.94751 106.761 3.94751C105.476 3.94751 104.418 4.99027 104.418 6.25647C104.418 7.52268 105.476 8.56544 106.761 8.56544Z" fill="#E02026"/>
<path d="M102.152 13.1091C94.2938 13.1091 88.8538 18.9933 88.8538 26.2926C88.8538 33.5919 94.3693 39.476 102.152 39.476C110.009 39.476 115.449 33.5919 115.449 26.2926C115.525 18.9933 110.009 13.1091 102.152 13.1091ZM102.152 35.2305C97.3915 35.2305 93.6138 31.4319 93.6138 26.2926C93.6138 21.1533 97.3915 17.4291 102.152 17.4291C106.912 17.4291 110.689 21.2277 110.689 26.2926C110.765 31.4319 106.987 35.2305 102.152 35.2305Z" fill="#03938D"/>
<path d="M126.178 2.97931V39.2524H124.214C122.551 39.2524 121.191 37.9117 121.191 36.2731V0H123.156C124.818 0 126.178 1.34069 126.178 2.97931Z" fill="#03938D"/>
<path d="M170 36.2732V13.3325H168.035C166.373 13.3325 165.013 14.6732 165.013 16.3118V39.2525H166.978C168.64 39.327 170 37.9118 170 36.2732Z" fill="#03938D"/>
<path d="M146.503 13.109C142.423 13.109 138.947 14.7476 136.529 17.3545V0H134.565C132.903 0 131.543 1.34069 131.543 2.97931V39.2524H133.507C135.169 39.2524 136.529 37.9117 136.529 36.2731V35.3048C138.872 37.9117 142.347 39.5503 146.503 39.5503C154.361 39.5503 159.801 33.6662 159.801 26.3669C159.801 18.9931 154.285 13.109 146.503 13.109ZM146.503 35.2303C141.289 35.2303 137.361 31.2083 137.361 26.2924C137.361 21.451 141.289 17.429 146.503 17.429C151.565 17.429 155.041 21.1531 155.041 26.2924C154.965 31.5062 151.565 35.2303 146.503 35.2303Z" fill="#03938D"/>
<path d="M72.7608 26.3669L84.7742 35.0069C85.9075 35.8262 86.1342 37.3903 85.303 38.4331C84.4719 39.5503 82.8853 39.7738 81.8275 38.9545L67.6986 28.8993V36.2731C67.6986 37.9117 66.3386 39.2524 64.6764 39.2524H62.7119V2.97931C62.7119 1.34069 64.0719 0 65.7341 0H67.6986V23.9834L81.4497 13.1834C82.5075 12.3641 84.0942 12.5131 85.0008 13.5559C85.8319 14.5986 85.6808 16.1628 84.623 17.0565L72.7608 26.3669Z" fill="#03938D"/>
<path d="M165.013 2.3833V5.88399C165.013 8.63985 167.053 10.2785 170.075 10.2785V6.7033C170 3.94744 167.96 2.3833 165.013 2.3833Z" fill="#03938D"/>
</g>
<defs>
<clipPath id="clip0_2357_51934">
<rect width="170" height="54" fill="white"/>
</clipPath>
</defs>
</svg>
