<svg width="21" height="19" viewBox="0 0 21 19" fill="none" xmlns="http://www.w3.org/2000/svg">
    <path d="M19.4557 2.50574L13.4175 0.493002H13.3471C13.3002 0.488294 13.253 0.488294 13.2062 0.493002H12.9747H12.8439H12.7734L7.05727 2.45542L1.3411 0.493002C1.18976 0.443098 1.02873 0.429848 0.871267 0.454342C0.713802 0.478837 0.564406 0.540375 0.435373 0.633894C0.305309 0.726496 0.199143 0.848716 0.125648 0.990457C0.0521529 1.1322 0.013437 1.28939 0.0126987 1.44905V15.5382C0.0121541 15.7492 0.0779304 15.955 0.20073 16.1266C0.32353 16.2981 0.497143 16.4267 0.697029 16.4942L6.73524 18.507C6.93797 18.5731 7.15645 18.5731 7.35918 18.507V18.507L13.0955 16.5949L18.8116 18.5573C18.9185 18.5718 19.0268 18.5718 19.1337 18.5573C19.3441 18.5603 19.5495 18.493 19.7174 18.3661C19.8474 18.2735 19.9536 18.1513 20.0271 18.0095C20.1006 17.8678 20.1393 17.7106 20.1401 17.5509V3.46179C20.1406 3.25081 20.0748 3.04499 19.952 2.87343C19.8292 2.70188 19.6556 2.57325 19.4557 2.50574V2.50574ZM6.0509 16.1521L2.02543 14.8136V2.8479L6.0509 4.18637V16.1521ZM12.0891 14.8136L8.06364 16.1521V4.18637L12.0891 2.8479V14.8136ZM18.1273 16.1521L14.1018 14.8136V2.8479L18.1273 4.18637V16.1521Z" fill="#F3F3F3"/>
 </svg>
    
    