<svg width="42" height="42" viewBox="0 0 42 42" fill="none" xmlns="http://www.w3.org/2000/svg">
<path d="M27.225 28.9683L19.5679 34.9238L17.8664 34.073C15.5976 31.8043 11.0602 27.0966 11.0602 26.416C11.0602 25.5652 8.50781 19.6097 8.50781 18.759V14.5051L10.2094 9.40038L13.6125 5.99726L20.4187 5.14648L27.225 7.69882L31.4789 14.5051V19.6097L27.225 28.9683Z" fill="#FCFCFC"/>
<path d="M20.5488 3.46582C16.9155 3.46582 13.4311 4.90912 10.862 7.47821C8.29291 10.0473 6.84961 13.5317 6.84961 17.165C6.84961 26.4119 18.922 36.8575 19.4357 37.3027C19.7459 37.568 20.1406 37.7138 20.5488 37.7138C20.9569 37.7138 21.3517 37.568 21.6618 37.3027C22.2612 36.8575 34.2479 26.4119 34.2479 17.165C34.2479 13.5317 32.8046 10.0473 30.2355 7.47821C27.6664 4.90912 24.182 3.46582 20.5488 3.46582ZM20.5488 33.6896C16.9014 30.2648 10.2744 22.8844 10.2744 17.165C10.2744 14.44 11.3569 11.8267 13.2837 9.8999C15.2105 7.97308 17.8238 6.89061 20.5488 6.89061C23.2737 6.89061 25.887 7.97308 27.8138 9.8999C29.7407 11.8267 30.8231 14.44 30.8231 17.165C30.8231 22.8844 24.1962 30.2819 20.5488 33.6896Z" fill="#477680"/>
</svg>
