<svg width="29" height="29" viewBox="0 0 29 29" fill="none" xmlns="http://www.w3.org/2000/svg">
    <path opacity="0.5" d="M18.8341 20.524L13.6273 24.5737L12.4703 23.9952C10.9275 22.4525 7.84203 19.2513 7.84203 18.7884C7.84203 18.2099 6.10645 14.1602 6.10645 13.5817V10.689L7.2635 7.21784L9.57762 4.90372L14.2059 4.3252L18.8341 6.06078L21.7267 10.689V14.1602L18.8341 20.524Z" fill="#FCFCFC"/>
    <path d="M14.2949 3.18262C11.8243 3.18262 9.45489 4.16406 7.70791 5.91104C5.96094 7.65802 4.97949 10.0274 4.97949 12.498C4.97949 18.7859 13.1887 25.8889 13.538 26.1917C13.7489 26.3721 14.0174 26.4712 14.2949 26.4712C14.5725 26.4712 14.8409 26.3721 15.0518 26.1917C15.4593 25.8889 23.6103 18.7859 23.6103 12.498C23.6103 10.0274 22.6289 7.65802 20.8819 5.91104C19.1349 4.16406 16.7655 3.18262 14.2949 3.18262V3.18262ZM14.2949 23.7347C11.8147 21.4059 7.30835 16.3872 7.30835 12.498C7.30835 10.6451 8.04443 8.86802 9.35466 7.55779C10.6649 6.24755 12.442 5.51147 14.2949 5.51147C16.1479 5.51147 17.9249 6.24755 19.2352 7.55779C20.5454 8.86802 21.2815 10.6451 21.2815 12.498C21.2815 16.3872 16.7751 21.4175 14.2949 23.7347ZM14.2949 7.84032C13.3737 7.84032 12.4732 8.11349 11.7072 8.62529C10.9413 9.13708 10.3443 9.86452 9.99175 10.7156C9.63922 11.5667 9.54698 12.5032 9.7267 13.4067C9.90641 14.3102 10.35 15.1401 11.0014 15.7915C11.6528 16.4429 12.4827 16.8865 13.3862 17.0662C14.2897 17.246 15.2263 17.1537 16.0773 16.8012C16.9284 16.4487 17.6559 15.8517 18.1676 15.0857C18.6794 14.3198 18.9526 13.4192 18.9526 12.498C18.9526 11.2627 18.4619 10.078 17.5884 9.20454C16.7149 8.33105 15.5302 7.84032 14.2949 7.84032ZM14.2949 14.8269C13.8343 14.8269 13.384 14.6903 13.0011 14.4344C12.6181 14.1785 12.3196 13.8148 12.1433 13.3892C11.9671 12.9637 11.9209 12.4954 12.0108 12.0437C12.1007 11.5919 12.3225 11.177 12.6482 10.8513C12.9739 10.5256 13.3888 10.3038 13.8406 10.2139C14.2923 10.1241 14.7606 10.1702 15.1861 10.3465C15.6117 10.5227 15.9754 10.8212 16.2313 11.2042C16.4872 11.5872 16.6238 12.0374 16.6238 12.498C16.6238 13.1157 16.3784 13.708 15.9417 14.1448C15.5049 14.5815 14.9126 14.8269 14.2949 14.8269Z" fill="#477680"/>
    </svg>
    