<svg width="40" height="40" viewBox="0 0 40 40" fill="none" xmlns="http://www.w3.org/2000/svg">
<g opacity="0.65">
<path fill-rule="evenodd" clip-rule="evenodd" d="M32.5 5.83325L30 3.33325L27.5 5.83325L25 3.33325L22.5 5.83325L20 3.33325L17.5 5.83325L15 3.33325L12.5 5.83325L10 3.33325L7.5 5.83325L5 3.33325V36.6666L7.5 34.1666L10 36.6666L12.5 34.1666L15 36.6666L17.5 34.1666L20 36.6666L22.5 34.1666L25 36.6666L27.5 34.1666L30 36.6666L32.5 34.1666L35 36.6666V3.33325L32.5 5.83325ZM8.33333 31.8166V8.18325H31.6667V31.8166H8.33333ZM30 28.3333V24.9999H10V28.3333H30ZM30 18.3333V21.6666H10V18.3333H30ZM30 14.9999V11.6666H10V14.9999H30Z" fill="white"/>
</g>
</svg>