<svg width="48" height="48" viewBox="0 0 48 48" fill="none" xmlns="http://www.w3.org/2000/svg">
<path fill-rule="evenodd" clip-rule="evenodd" d="M36.5276 25.88L30.0476 22.64C32.6276 20.64 34.2876 17.52 34.2876 14C34.2876 7.94 29.3476 3 23.2876 3C17.2276 3 12.2876 7.94 12.2876 14C12.2876 18.26 14.7276 21.96 18.2876 23.78V30.3L14.6076 29.52L14.4076 29.48C14.2076 29.44 14.0076 29.42 13.7676 29.42C12.7076 29.42 11.7076 29.84 10.9476 30.6L8.14758 33.44L18.3276 43.62C19.1876 44.5 20.3876 45 21.6276 45H34.2276C36.1876 45 37.8476 43.6 38.1676 41.66L39.7676 32.24C40.2076 29.64 38.9076 27.08 36.5276 25.88ZM35.8276 31.58L34.2276 41H21.6276C21.4476 41 21.2876 40.92 21.1476 40.8L13.7876 33.44L22.2876 35.22V14C22.2876 13.44 22.7276 13 23.2876 13C23.8476 13 24.2876 13.44 24.2876 14V26H27.8076L34.7276 29.46C35.5276 29.86 35.9676 30.72 35.8276 31.58ZM23.2876 7C19.4276 7 16.2876 10.14 16.2876 14C16.2876 15.9 17.0476 17.62 18.2876 18.88V14C18.2876 11.24 20.5276 9 23.2876 9C26.0476 9 28.2876 11.24 28.2876 14V18.88C29.5276 17.62 30.2876 15.9 30.2876 14C30.2876 10.14 27.1476 7 23.2876 7Z" fill="#00B5AE"/>
</svg>
