<svg width="49" height="49" viewBox="0 0 49 49" fill="none" xmlns="http://www.w3.org/2000/svg">
<g filter="url(#filter0_d_1661_34246)">
<circle r="16.5" transform="matrix(-1 0 0 1 26.5 22.5)" fill="#5F99A6"/>
</g>
<path d="M19.0406 14.6992C19.4012 14.3317 19.8584 14.0737 20.3594 13.9551C20.8604 13.8366 21.3847 13.8622 21.8717 14.0292L35.225 18.4928C35.7635 18.6691 36.2341 19.0082 36.5717 19.4634C36.9093 19.9185 37.0973 20.4672 37.1097 21.0337C37.1221 21.6003 36.9584 22.1567 36.6411 22.6262C36.3238 23.0957 35.8685 23.4551 35.3382 23.6549L30.3933 25.5422C30.2807 25.5853 30.1781 25.6511 30.0921 25.7355C30.006 25.8199 29.9383 25.9212 29.8931 26.033L28.0057 30.9874C27.8136 31.5102 27.465 31.961 27.0073 32.2785C26.5497 32.596 26.0053 32.7646 25.4483 32.7615H25.3822C24.8151 32.7512 24.2653 32.5636 23.8101 32.2252C23.3549 31.8867 23.0169 31.4143 22.8437 30.8741L18.38 17.502C18.2177 17.0197 18.1935 16.5016 18.3103 16.0063C18.427 15.511 18.68 15.0582 19.0406 14.6992ZM20.1259 16.9074L24.6367 30.289C24.6891 30.4584 24.7943 30.6065 24.9369 30.7118C25.0796 30.8171 25.2522 30.874 25.4294 30.8741C25.6057 30.877 25.7786 30.8262 25.9253 30.7284C26.0719 30.6306 26.1853 30.4906 26.2504 30.3268L28.1378 25.3724C28.2747 25.0124 28.4857 24.6852 28.7572 24.4121C29.0287 24.1389 29.3546 23.9259 29.7138 23.787L34.6682 21.8996C34.8353 21.8383 34.979 21.7261 35.0789 21.5788C35.1788 21.4315 35.2299 21.2565 35.225 21.0786C35.2248 20.9013 35.168 20.7287 35.0627 20.5861C34.9574 20.4434 34.8093 20.3382 34.6399 20.2859L21.2583 15.8222C21.1047 15.7596 20.9362 15.7428 20.7732 15.7739C20.6103 15.805 20.4598 15.8826 20.34 15.9974C20.2202 16.1122 20.1363 16.2592 20.0982 16.4207C20.0602 16.5822 20.0698 16.7513 20.1259 16.9074Z" fill="#FCFCFC"/>
<defs>
<filter id="filter0_d_1661_34246" x="0" y="0" width="49" height="49" filterUnits="userSpaceOnUse" color-interpolation-filters="sRGB">
<feFlood flood-opacity="0" result="BackgroundImageFix"/>
<feColorMatrix in="SourceAlpha" type="matrix" values="0 0 0 0 0 0 0 0 0 0 0 0 0 0 0 0 0 0 127 0" result="hardAlpha"/>
<feOffset dx="-2" dy="2"/>
<feGaussianBlur stdDeviation="4"/>
<feComposite in2="hardAlpha" operator="out"/>
<feColorMatrix type="matrix" values="0 0 0 0 0.403922 0 0 0 0 0.403922 0 0 0 0 0.403922 0 0 0 0.5 0"/>
<feBlend mode="normal" in2="BackgroundImageFix" result="effect1_dropShadow_1661_34246"/>
<feBlend mode="normal" in="SourceGraphic" in2="effect1_dropShadow_1661_34246" result="shape"/>
</filter>
</defs>
</svg>
